<svg viewBox="0 0 256 256" fill="none" xmlns="http://www.w3.org/2000/svg">
<rect width="100%" height="100%" fill="white"/>
<path d="M240.226 111.187C234.537 107.36 219.592 105.726 208.729 108.653C208.146 97.8378 202.561 88.7221 192.353 80.7683L188.575 78.2342L186.057 82.037C181.106 89.5461 179.019 99.5547 179.757 108.653C180.34 114.259 182.289 120.558 186.057 125.13C171.916 133.328 158.879 131.467 101.15 131.467H12.0197C11.761 144.495 13.855 169.553 29.8001 189.953C31.563 192.208 33.4915 194.387 35.589 196.487C48.5534 209.46 68.1415 218.976 97.4306 219C142.116 219.041 180.399 194.901 203.689 136.538C211.351 136.662 231.581 137.91 241.482 118.793C241.723 118.472 244 113.725 244 113.725L240.226 111.191V111.187ZM70.1873 99.2755H45.1243V124.323H70.1873V99.2755ZM102.564 99.2755H77.5009V124.323H102.564V99.2755ZM134.944 99.2755H109.881V124.323H134.944V99.2755ZM167.324 99.2755H142.261V124.323H167.324V99.2755ZM37.8072 99.2755H12.7442V124.323H37.8072V99.2755ZM70.1873 67.6395H45.1243V92.6869H70.1873V67.6395ZM102.564 67.6395H77.5009V92.6869H102.564V67.6395ZM134.944 67.6395H109.881V92.6869H134.944V67.6395ZM134.944 36H109.881V61.0475H134.944V36Z" fill="#1D63ED"/>
</svg>
