<svg viewBox="0 0 256 256" fill="none" xmlns="http://www.w3.org/2000/svg">
<rect width="100%" height="100%" fill="white"/>
<path d="M112.156 132.518H127.486L119.38 119.545L104.503 143H97.7322L115.828 114.826C116.614 113.688 117.926 113 119.38 113C120.787 113 122.098 113.664 122.861 114.779L141.028 143H134.258L131.063 137.759H115.542L112.156 132.518H112.156ZM182.489 137.758V113.284H176.743V140.154C176.743 140.889 177.029 141.601 177.577 142.146C178.126 142.691 178.865 143 179.675 143H205.877L209.263 137.759H182.488L182.489 137.758ZM87.4322 133.371C93.0115 133.371 97.5414 128.889 97.5414 123.34C97.5414 117.79 93.0115 113.284 87.4322 113.284H62.296V143H68.0398V118.526H87.0511C89.7214 118.526 91.8669 120.684 91.8669 123.34C91.8669 125.996 89.7214 128.154 87.0511 128.154L70.8532 128.131L88.0045 143H96.3492L84.8099 133.372H87.4326L87.4322 133.371ZM26.9395 143C18.6927 143 12 136.36 12 128.154C12 119.948 18.6927 113.285 26.9395 113.285H44.3033C52.552 113.285 59.2396 119.948 59.2396 128.154C59.2396 136.36 52.552 143 44.3028 143H26.9395ZM43.9172 137.759C49.26 137.759 53.5874 133.466 53.5874 128.154C53.5874 122.842 49.26 118.526 43.9172 118.526H27.3238C21.9828 118.526 17.6532 122.842 17.6532 128.154C17.6532 133.466 21.9828 137.759 27.3233 137.759H43.9168H43.9172ZM153.021 143C144.772 143 138.072 136.36 138.072 128.154C138.072 119.948 144.772 113.285 153.021 113.285H173.644L170.282 118.526H153.402C148.062 118.526 143.723 122.842 143.723 128.154C143.723 133.466 148.062 137.759 153.402 137.759H174.12L170.735 143H153.021ZM223.282 137.759C218.872 137.759 215.128 134.818 213.984 130.762H238.541L241.926 125.521H213.984C215.128 121.49 218.872 118.526 223.282 118.526H240.138L243.547 113.284H222.9C214.651 113.284 207.952 119.948 207.952 128.153C207.952 136.359 214.651 142.999 222.9 142.999H240.615L244 137.759H223.282H223.282Z" fill="#EA1B22"/>
</svg>
