<svg viewBox="0 0 256 256" fill="none" xmlns="http://www.w3.org/2000/svg">
<path d="M127.999 128V188M127.999 128C166.659 128 197.999 96.83 197.999 58.38C197.999 57.38 197.979 56.38 197.939 55.38C197.509 45.38 197.299 40.38 190.519 34.19C183.739 28 176.249 28 161.239 28H94.7598C79.76 28 72.2501 28 65.4802 34.2C58.7102 40.38 58.4902 45.38 58.0603 55.37C58.0203 56.37 58.0003 57.3733 58.0003 58.38C58.0003 96.83 89.3399 128 127.999 128ZM127.999 188C111.26 188 96.6998 198.12 89.1799 213.05C85.5799 220.18 90.7399 228 97.5798 228H158.409C165.259 228 170.409 220.18 166.819 213.05C159.299 198.12 144.739 188 127.999 188ZM58.0003 58H47.8504C37.9805 58 33.0505 58 30.0006 61.7C26.9506 65.41 27.8506 69.56 29.6406 77.86C33.0405 93.7 40.4504 107.63 50.4903 118M197.999 58H208.149C218.018 58 222.948 58 225.998 61.7C229.048 65.41 228.148 69.56 226.368 77.86C222.948 93.7 215.549 107.63 205.499 118" stroke="currentColor" stroke-width="22.5" stroke-linecap="round" stroke-linejoin="round"/>
</svg>
