<svg viewBox="0 0 256 256" fill="none" xmlns="http://www.w3.org/2000/svg">
<path d="M65.75 146.5C60.7772 146.5 56.0081 144.525 52.4917 141.008C48.9754 137.492 47 132.723 47 127.75C47 122.777 48.9754 118.008 52.4917 114.492C56.0081 110.975 60.7772 109 65.75 109C70.7228 109 75.4919 110.975 79.0083 114.492C82.5246 118.008 84.5 122.777 84.5 127.75C84.5 132.723 82.5246 137.492 79.0083 141.008C75.4919 144.525 70.7228 146.5 65.75 146.5ZM128.25 146.5C123.277 146.5 118.508 144.525 114.992 141.008C111.475 137.492 109.5 132.723 109.5 127.75C109.5 122.777 111.475 118.008 114.992 114.492C118.508 110.975 123.277 109 128.25 109C133.223 109 137.992 110.975 141.508 114.492C145.025 118.008 147 122.777 147 127.75C147 132.723 145.025 137.492 141.508 141.008C137.992 144.525 133.223 146.5 128.25 146.5ZM190.75 146.5C185.777 146.5 181.008 144.525 177.492 141.008C173.975 137.492 172 132.723 172 127.75C172 122.777 173.975 118.008 177.492 114.492C181.008 110.975 185.777 109 190.75 109C195.723 109 200.492 110.975 204.008 114.492C207.525 118.008 209.5 122.777 209.5 127.75C209.5 132.723 207.525 137.492 204.008 141.008C200.492 144.525 195.723 146.5 190.75 146.5Z" fill="currentColor"/>
</svg>
