<svg viewBox="0 0 256 256" fill="none" xmlns="http://www.w3.org/2000/svg">
<rect width="100%" height="100%" fill="white"/>
<path d="M128 244C192.065 244 244 192.065 244 128C244 63.935 192.065 12 128 12C63.935 12 12 63.935 12 128C12 192.065 63.935 244 128 244Z" fill="#2B2E3A"/>
<path d="M102.908 76.5805C79.3443 72.2841 60.713 76.781 53.2874 89.6577C47.7465 99.2668 49.3304 112.006 57.1293 125.624C57.2833 125.907 57.4922 126.156 57.7436 126.357C57.9951 126.558 58.2841 126.707 58.5937 126.795C58.9033 126.882 59.2273 126.907 59.5466 126.868C59.866 126.828 60.1742 126.725 60.4533 126.565C60.7324 126.405 60.9767 126.19 61.172 125.934C61.3672 125.678 61.5094 125.386 61.5902 125.074C61.671 124.762 61.6888 124.437 61.6426 124.119C61.5964 123.8 61.487 123.494 61.3209 123.218C54.2968 110.951 52.9295 99.9562 57.4727 92.0772C63.6415 81.3805 80.2595 77.3689 102.041 81.3406C102.667 81.4449 103.309 81.2986 103.828 80.9332C104.347 80.5678 104.702 80.0126 104.816 79.3876C104.93 78.7626 104.793 78.1179 104.436 77.5927C104.079 77.0675 103.53 76.7039 102.908 76.5805ZM69.3826 142.177C78.9103 152.66 91.2887 162.493 105.406 170.652C139.587 190.411 175.976 195.692 193.91 183.449C194.178 183.273 194.409 183.045 194.588 182.778C194.767 182.512 194.892 182.212 194.954 181.897C195.016 181.582 195.015 181.257 194.951 180.942C194.887 180.628 194.761 180.329 194.58 180.063C194.399 179.798 194.167 179.571 193.898 179.396C193.629 179.222 193.327 179.102 193.012 179.045C192.696 178.988 192.372 178.995 192.058 179.065C191.745 179.135 191.449 179.266 191.187 179.452C175.136 190.409 140.57 185.392 107.822 166.463C94.1275 158.546 82.1406 149.025 72.9572 138.92C72.744 138.684 72.4862 138.492 72.1988 138.355C71.9113 138.219 71.5997 138.141 71.282 138.125C70.9642 138.109 70.6465 138.157 70.3471 138.264C70.0476 138.372 69.7724 138.538 69.5371 138.752C69.3018 138.967 69.1111 139.225 68.9759 139.514C68.8407 139.802 68.7638 140.114 68.7494 140.433C68.7351 140.751 68.7836 141.069 68.8923 141.368C69.0009 141.667 69.1676 141.942 69.3826 142.177Z" fill="#9FEAF9"/>
<path d="M188.285 139.61C203.733 121.5 209.127 103.287 201.708 90.5354C196.249 81.1521 184.708 76.1981 169.369 76C168.734 76.0009 168.124 76.2501 167.672 76.6935C167.22 77.137 166.962 77.7392 166.954 78.3699C166.945 79.0006 167.188 79.6092 167.628 80.0642C168.068 80.5191 168.671 80.7838 169.307 80.801C183.101 80.9793 193.044 85.2474 197.518 92.9364C203.68 103.528 198.87 119.77 184.592 136.508C184.382 136.748 184.223 137.027 184.123 137.328C184.023 137.63 183.984 137.948 184.009 138.265C184.033 138.581 184.121 138.89 184.267 139.173C184.413 139.456 184.613 139.707 184.858 139.912C185.102 140.117 185.385 140.272 185.69 140.368C185.995 140.464 186.316 140.499 186.635 140.471C186.954 140.443 187.264 140.352 187.547 140.204C187.83 140.057 188.081 139.855 188.285 139.61ZM148.584 78.2353C134.616 81.2053 119.749 87.0119 105.471 95.1915C70.1416 115.432 47.0953 145.278 50.296 166.919C50.3387 167.234 50.4439 167.537 50.6056 167.812C50.7673 168.086 50.9823 168.326 51.2381 168.517C51.4938 168.708 51.7853 168.847 52.0956 168.925C52.4058 169.004 52.7287 169.021 53.0455 168.975C53.3624 168.928 53.6668 168.82 53.9412 168.656C54.2156 168.493 54.4545 168.276 54.644 168.02C54.8336 167.764 54.9701 167.473 55.0455 167.165C55.1209 166.856 55.1338 166.535 55.0834 166.221C52.2411 147.006 74.0871 118.716 107.89 99.3498C121.741 91.4141 136.137 85.792 149.597 82.9301C149.912 82.8685 150.212 82.7453 150.478 82.5677C150.745 82.39 150.973 82.1615 151.15 81.8955C151.327 81.6294 151.448 81.3311 151.507 81.018C151.567 80.7049 151.563 80.3832 151.495 80.0716C151.428 79.7601 151.299 79.4649 151.116 79.2034C150.932 78.9418 150.698 78.7191 150.427 78.5482C150.156 78.3773 149.854 78.2616 149.537 78.2079C149.221 78.1542 148.897 78.1635 148.584 78.2353Z" fill="#9FEAF9"/>
<path d="M91.3359 182.426C99.4356 205.062 112.685 219 127.584 219C138.45 219 148.503 211.585 156.342 198.533C156.512 198.259 156.626 197.955 156.677 197.637C156.728 197.319 156.715 196.995 156.64 196.682C156.564 196.369 156.427 196.074 156.237 195.815C156.047 195.555 155.807 195.336 155.531 195.17C155.256 195.004 154.95 194.895 154.632 194.849C154.314 194.802 153.989 194.819 153.678 194.899C153.366 194.979 153.074 195.121 152.817 195.315C152.561 195.509 152.346 195.752 152.184 196.031C145.139 207.761 136.485 214.143 127.584 214.143C115.208 214.143 103.39 201.712 95.9042 180.79C95.8017 180.484 95.6392 180.201 95.4261 179.958C95.213 179.716 94.9537 179.518 94.6633 179.377C94.3729 179.236 94.0573 179.154 93.735 179.137C93.4127 179.119 93.0902 179.166 92.7863 179.275C92.4824 179.384 92.2032 179.552 91.9652 179.771C91.7272 179.989 91.535 180.252 91.4 180.546C91.265 180.839 91.1899 181.157 91.1791 181.48C91.1682 181.803 91.2218 182.124 91.3368 182.426H91.3359ZM165.312 177.998C169.506 164.588 171.758 149.118 171.758 132.997C171.758 92.7698 157.691 58.0927 137.657 49.1885C137.071 48.9432 136.413 48.9371 135.824 49.1716C135.234 49.4061 134.759 49.8625 134.502 50.443C134.244 51.0235 134.224 51.6819 134.446 52.277C134.668 52.8721 135.114 53.3565 135.688 53.6265C153.557 61.5692 166.905 94.4789 166.905 132.997C166.905 148.637 164.725 163.618 160.683 176.548C160.583 176.854 160.544 177.176 160.569 177.497C160.595 177.818 160.683 178.13 160.83 178.417C160.977 178.703 161.18 178.957 161.426 179.164C161.672 179.371 161.956 179.528 162.263 179.624C162.57 179.72 162.893 179.754 163.213 179.724C163.533 179.694 163.844 179.601 164.128 179.45C164.412 179.298 164.663 179.092 164.866 178.843C165.07 178.594 165.222 178.307 165.313 177.998H165.312ZM211 175.62C211 169.202 205.802 163.999 199.39 163.999C192.978 163.999 187.78 169.202 187.78 175.62C187.78 182.038 192.978 187.241 199.39 187.241C205.802 187.241 211 182.038 211 175.62ZM206.149 175.62C206.149 176.508 205.974 177.388 205.634 178.209C205.295 179.03 204.797 179.776 204.169 180.404C203.541 181.032 202.796 181.53 201.976 181.87C201.156 182.21 200.277 182.385 199.39 182.385C198.502 182.385 197.623 182.21 196.803 181.87C195.983 181.53 195.238 181.032 194.611 180.404C193.983 179.776 193.485 179.03 193.145 178.209C192.806 177.388 192.631 176.508 192.631 175.62C192.631 173.826 193.343 172.105 194.611 170.836C195.878 169.567 197.597 168.855 199.39 168.855C201.182 168.855 202.902 169.567 204.169 170.836C205.437 172.105 206.149 173.826 206.149 175.62ZM55.6102 187.241C62.0234 187.241 67.2213 182.038 67.2213 175.62C67.2213 169.202 62.0225 163.999 55.6102 163.999C49.1988 163.999 44 169.202 44 175.62C44 182.038 49.1988 187.241 55.6102 187.241ZM55.6102 182.385C53.8176 182.385 52.0985 181.673 50.8309 180.404C49.5634 179.135 48.8513 177.414 48.8513 175.62C48.8513 173.826 49.5634 172.105 50.8309 170.836C52.0985 169.567 53.8176 168.855 55.6102 168.855C57.4028 168.855 59.1219 169.567 60.3894 170.836C61.657 172.105 62.3691 173.826 62.3691 175.62C62.3691 177.414 61.657 179.135 60.3894 180.404C59.1219 181.673 57.4028 182.385 55.6102 182.385Z" fill="#9FEAF9"/>
<path d="M127.5 61.1065C133.851 61.1065 139 55.9341 139 49.5533C139 43.1724 133.851 38 127.5 38C121.149 38 116 43.1724 116 49.5533C116 55.9341 121.149 61.1065 127.5 61.1065ZM127.5 56.279C125.724 56.279 124.022 55.5704 122.766 54.3091C121.511 53.0478 120.805 51.337 120.805 49.5533C120.805 47.7695 121.511 46.0588 122.766 44.7974C124.022 43.5361 125.724 42.8275 127.5 42.8275C129.276 42.8275 130.978 43.5361 132.234 44.7974C133.489 46.0588 134.195 47.7695 134.195 49.5533C134.195 51.337 133.489 53.0478 132.234 54.3091C130.978 55.5704 129.276 56.279 127.5 56.279ZM129.256 140.81C124.764 141.785 120.339 138.917 119.367 134.404C118.902 132.238 119.312 129.974 120.507 128.11C121.703 126.247 123.586 124.937 125.743 124.469C130.235 123.494 134.66 126.362 135.633 130.874C136.603 135.387 133.749 139.833 129.256 140.81Z" fill="#9FEAF9"/>
</svg>
