<svg viewBox="0 0 256 256" fill="none" xmlns="http://www.w3.org/2000/svg">
<rect width="100%" height="100%" fill="white"/>
<path d="M89.5 244C110.752 244 128 226.752 128 205.5V167H89.5C68.248 167 51 184.248 51 205.5C51 226.752 68.248 244 89.5 244Z" fill="#0ACF83"/>
<path d="M51 128C51 106.472 68.248 89 89.5 89H128V167H89.5C68.248 167 51 149.528 51 128Z" fill="#A259FF"/>
<path d="M51 50.5C51 29.248 68.248 12 89.5 12H128V89H89.5C68.248 89 51 71.752 51 50.5Z" fill="#F24E1E"/>
<path d="M128 12H167C188.528 12 206 29.248 206 50.5C206 71.752 188.528 89 167 89H128V12Z" fill="#FF7262"/>
<path d="M206 128C206 149.528 188.528 167 167 167C145.472 167 128 149.528 128 128C128 106.472 145.472 89 167 89C188.528 89 206 106.472 206 128Z" fill="#1ABCFE"/>
</svg>
