<svg viewBox="0 0 256 256" fill="none" xmlns="http://www.w3.org/2000/svg">
<rect width="100%" height="100%" fill="white"/>
<path d="M104.76 16.7816C73.941 23.6526 48.6796 40.7291 31.2997 66.5964C0.884976 112.167 6.94772 173.299 45.7492 212.302C57.3695 224.023 75.0525 235.34 88.3905 239.685C93.3417 241.302 93.948 241.302 96.171 239.786C98.5961 238.17 98.6971 237.765 98.6971 226.145V214.222L89.8051 214.727C79.3974 215.233 71.3138 213.414 66.4636 209.271C64.7458 207.856 61.4113 203.006 59.0873 198.56C55.2475 191.083 52.4183 187.647 44.5367 180.675C41.9095 178.351 41.8085 178.25 43.6273 176.937C47.9722 173.703 56.7632 176.836 62.3207 183.505C72.0211 195.327 75.7598 198.459 81.3173 199.672C86.2685 200.682 90.8156 200.278 97.6867 198.257C98.5961 197.954 99.8086 195.832 100.415 193.407C101.021 191.083 102.638 187.546 103.952 185.627L106.377 182.09L98.1919 180.473C81.0142 176.937 70.4044 170.773 63.4322 160.264C56.9653 150.564 54.8433 142.178 54.7423 126.516C54.7423 111.763 56.359 105.701 62.7249 97.4149C65.5542 93.7773 65.8573 92.6658 65.049 90.5439C63.5333 86.9063 63.9374 71.5476 65.5542 66.8996C66.8678 63.4641 67.5751 62.8578 70.3033 62.5547C74.8504 62.0494 83.3382 64.9797 91.9271 69.8298L99.3034 74.0737L105.77 72.558C114.965 70.4361 142.551 70.5372 150.837 72.558L157.102 74.1747L162.962 70.6382C170.743 65.9902 180.645 62.3526 185.596 62.3526C189.537 62.3526 189.537 62.4536 191.154 67.6069C192.872 73.5685 193.175 84.3802 191.659 89.5335C190.851 92.5648 191.053 93.4742 193.276 96.4045C204.29 110.955 205.502 135.104 196.206 154.909C189.941 167.944 176.704 177.038 158.92 180.372L150.433 181.989L153.565 187.546L156.798 193.205L157.102 215.738L157.506 238.271L160.032 239.887C162.356 241.403 162.861 241.403 167.711 239.685C175.795 236.957 189.638 229.48 197.217 223.72C242.283 189.971 256.834 129.446 231.875 79.1259C217.224 49.5199 189.537 26.785 157.809 18.2973C143.966 14.6597 117.896 13.8513 104.76 16.7816Z" fill="black"/>
</svg>
