<svg viewBox="0 0 256 256" fill="none" xmlns="http://www.w3.org/2000/svg">
<rect width="100%" height="100%" fill="white"/>
<path d="M240.136 104.664L239.824 103.828L208.248 21.247C207.608 19.6255 206.471 18.2499 205.001 17.3195C203.903 16.6152 202.657 16.1785 201.361 16.0443C200.065 15.91 198.755 16.0821 197.537 16.5467C196.32 17.0112 195.227 17.7554 194.348 18.7194C193.469 19.6835 192.827 20.8406 192.474 22.0981L171.16 87.5206H84.8473L63.5334 22.0981C63.1779 20.8425 62.5346 19.6875 61.6549 18.7253C60.7753 17.7631 59.6835 17.0203 58.4668 16.5561C57.25 16.0919 55.9419 15.9192 54.6468 16.0518C53.3516 16.1843 52.1053 16.6184 51.0072 17.3195C49.5365 18.2499 48.3993 19.6255 47.7602 21.247L16.1989 103.843L15.8712 104.664C11.3274 116.57 10.7676 129.635 14.2763 141.888C17.785 154.141 25.172 164.919 35.3234 172.595L35.4425 172.685L35.7106 172.894L83.7451 208.987L107.576 227.042L122.054 238.018C123.752 239.304 125.823 240 127.952 240C130.081 240 132.151 239.304 133.85 238.018L148.327 227.042L172.158 208.987L220.535 172.685L220.669 172.58C230.82 164.907 238.208 154.133 241.72 141.883C245.231 129.632 244.675 116.57 240.136 104.664Z" fill="#E24329"/>
<path d="M240.129 104.835L239.816 104C224.427 107.16 209.926 113.688 197.354 123.115L128 175.6L172.16 209L220.552 172.752L220.686 172.648C230.834 164.982 238.219 154.223 241.725 141.992C245.232 129.76 244.672 116.72 240.129 104.835Z" fill="#FC6D26"/>
<path d="M84 209.21L107.989 227.135L122.563 238.032C124.273 239.309 126.357 240 128.5 240C130.643 240 132.727 239.309 134.437 238.032L149.011 227.135L173 209.21L128.56 176L84 209.21Z" fill="#FCA326"/>
<path d="M58.6645 123.103C46.092 113.679 31.5911 107.156 16.2018 104L15.8739 104.82C11.3269 116.71 10.7667 129.757 14.2778 141.993C17.7889 154.23 25.1808 164.992 35.3391 172.658L35.4583 172.747L35.7266 172.956L83.7934 209L128 175.596L58.6645 123.103Z" fill="#FC6D26"/>
</svg>
