<svg viewBox="0 0 256 256" fill="none" xmlns="http://www.w3.org/2000/svg">
<rect width="100%" height="100%" fill="white"/>
<path d="M234.266 15H122C122 41.9758 144.713 63.9329 172.617 63.9329H193.382V83.0668C193.382 110.042 216.096 132 244 132V24.4102C244 19.0778 239.782 15 234.266 15Z" fill="#2684FF"/>
<path d="M179.266 69H67C67 95.9037 89.7127 117.802 117.617 117.802H138.383V137.198C138.383 164.101 161.096 186 189 186V78.3847C189 73.3796 184.781 69 179.266 69Z" fill="url(#paint0_linear_222_391)"/>
<path d="M123.346 123H12C12 149.976 34.5266 171.933 62.2023 171.933H82.7981V191.067C82.7981 218.043 105.325 240 133 240V132.41C133 127.077 128.495 123 123.346 123Z" fill="url(#paint1_linear_222_391)"/>
<defs>
<linearGradient id="paint0_linear_222_391" x1="186.611" y1="69.27" x2="140.674" y2="118.404" gradientUnits="userSpaceOnUse">
<stop offset="0.176" stop-color="#0052CC"/>
<stop offset="1" stop-color="#2684FF"/>
</linearGradient>
<linearGradient id="paint1_linear_222_391" x1="133.726" y1="123.36" x2="80.3542" y2="176.637" gradientUnits="userSpaceOnUse">
<stop offset="0.176" stop-color="#0052CC"/>
<stop offset="1" stop-color="#2684FF"/>
</linearGradient>
</defs>
</svg>
