<svg viewBox="0 0 256 256" fill="none" xmlns="http://www.w3.org/2000/svg">
<rect width="100%" height="100%" fill="white"/>
<path d="M27.6448 186.044C28.7018 187.916 30.2289 189.321 32.1092 190.374L122.567 242.333C126.327 244.556 130.908 244.556 134.55 242.333L225.009 190.374C228.768 188.268 231 184.289 231 179.959V76.0418C231 71.712 228.768 67.7331 225.009 65.6273L134.55 13.6679C130.791 11.444 126.209 11.444 122.567 13.6679L32.11 65.6273C28.2318 67.7331 26 71.712 26 76.0418V180.075C26 182.183 26.4701 184.172 27.6448 186.044Z" fill="#009639"/>
<path d="M100.163 168.346C100.169 169.878 99.8741 171.397 99.2943 172.813C98.7146 174.23 97.8617 175.518 96.785 176.601C95.7082 177.684 94.4289 178.543 93.0208 179.126C91.6128 179.709 90.1038 180.006 88.5811 180C87.0584 180.006 85.5495 179.709 84.1416 179.126C82.7336 178.542 81.4544 177.684 80.3777 176.601C79.301 175.517 78.4482 174.23 77.8685 172.813C77.2888 171.396 76.9937 169.878 77.0001 168.346V88.4188C77.0001 82.1794 82.4983 77.118 90.1018 77.118C95.6008 77.118 102.035 79.3542 105.896 84.1806L109.404 88.4188L157.837 146.686V88.6539C157.837 82.1794 162.985 77 169.419 77C175.853 77 181 82.1794 181 88.6539V168.582C181 174.82 175.502 179.882 167.898 179.882C162.399 179.882 155.965 177.646 152.105 172.819L100.163 110.431V168.346Z" fill="white"/>
</svg>
