<svg viewBox="0 0 256 256" fill="none" xmlns="http://www.w3.org/2000/svg">
<rect width="100%" height="100%" fill="white"/>
<path d="M30.956 22.0087L159.297 12.5271C175.062 11.1745 179.112 12.0863 189.025 19.2944L229.994 48.1616C236.75 53.1263 239 54.4788 239 59.8843V218.205C239 228.127 235.398 233.997 222.787 234.892L73.7496 243.922C64.2863 244.369 59.7796 243.017 54.823 236.7L24.6541 197.46C19.2429 190.238 17 184.832 17 178.513V37.7844C17 29.6715 20.6021 22.9066 30.956 22.0087Z" fill="white"/>
<path fill-rule="evenodd" clip-rule="evenodd" d="M159.296 12.5294L30.9559 22.0111C20.602 22.9066 17 29.674 17 37.7846V178.514C17 184.831 19.2429 190.237 24.6541 197.461L54.8226 236.699C59.7792 243.016 64.2858 244.371 73.749 243.921L222.787 234.896C235.389 233.999 239 228.129 239 218.209V59.887C239 54.7599 236.975 53.282 231.014 48.9066L189.024 19.2944C179.113 12.0863 175.061 11.1745 159.296 12.5271V12.5294ZM77.1191 57.2956C64.9492 58.1145 62.1891 58.3001 55.2772 52.6788L37.7054 38.6987C35.9194 36.8891 36.817 34.6318 41.3167 34.1817L164.693 25.164C175.054 24.2592 180.449 27.8714 184.501 31.0265L205.661 46.3616C206.565 46.8186 208.815 49.5167 206.108 49.5167L78.6963 57.1889L77.1191 57.2956ZM62.9313 216.856V82.4534C62.9313 76.5838 64.7335 73.8764 70.1284 73.4217L216.469 64.8517C221.433 64.404 223.676 67.5591 223.676 73.4194V206.927C223.676 212.796 222.771 217.761 214.669 218.209L74.6304 226.329C66.5287 226.777 62.9336 224.078 62.9336 216.856H62.9313ZM201.168 89.6592C202.066 93.7192 201.168 97.7791 197.109 98.2431L190.36 99.5817V198.814C184.499 201.969 179.104 203.772 174.595 203.772C167.388 203.772 165.588 201.514 160.191 194.754L116.053 125.294V192.497L130.016 195.659C130.016 195.659 130.016 203.779 118.75 203.779L87.6933 205.581C86.7887 203.772 87.6933 199.264 90.8407 198.366L98.9517 196.116V107.261L87.6956 106.349C86.791 102.289 89.0409 96.4266 95.3497 95.9718L128.673 93.7284L174.597 164.086V101.841L162.891 100.496C161.986 95.5241 165.588 91.9119 170.088 91.4711L201.168 89.6592Z" fill="black"/>
</svg>
