<svg viewBox="0 0 256 256" fill="none" xmlns="http://www.w3.org/2000/svg">
<rect width="100%" height="100%" fill="white"/>
<path fill-rule="evenodd" clip-rule="evenodd" d="M193.826 181.315C193.863 180.939 193.939 180.415 194.014 179.591C194.089 179.178 194.127 178.803 194.165 178.428L195.777 178.579H196.19C200.352 178.766 205.19 178.428 209.84 177.642C214.452 176.855 218.914 175.617 222.364 174.042C229.452 170.742 235.414 166.054 238.151 162.342C239.801 160.019 240.813 157.58 240.964 155.105C241.301 150.266 239.276 146.554 234.59 144.304C231.89 142.991 228.177 142.654 223.415 143.63C217.303 144.905 213.441 145.729 211.003 146.328C221.915 128.217 229.94 108.754 234.701 91.5038C241.301 67.6531 241.375 46.9166 234.251 37.8043C223.451 24.0417 210.102 17.1416 197.053 14.0289C178.004 9.49157 159.031 13.6539 150.931 15.9791C148.619 15.5574 146.292 15.2198 143.956 14.9671C140.581 14.6297 137.243 14.4039 133.868 14.3662C127.231 14.2533 121.233 15.1176 115.833 16.729C111.944 17.8673 108.214 19.4925 104.732 21.566C84.8973 14.815 12.1133 -4.53451 16.1625 76.3919C16.6489 86.0674 24.2233 125.33 35.6976 152.554C39.673 161.967 44.1724 170.141 49.1988 175.691C56.1347 183.416 64.123 186.828 73.1957 183.565C75.6336 182.702 78.0338 181.353 80.3574 179.44C80.7338 179.891 81.1826 180.377 81.6328 180.79C84.3704 183.378 88.7945 185.404 92.2805 186.265C96.4427 187.316 103.381 188.553 111.106 187.241C114.131 186.743 117.079 185.861 119.881 184.616C119.768 185.853 119.694 187.203 119.73 188.628C119.807 190.652 119.843 192.679 119.917 194.102C120.107 199.016 120.367 203.891 120.893 208.615C121.456 213.565 122.281 217.953 123.556 221.439C123.743 221.927 123.892 222.376 124.079 222.901C127.042 232.051 132.367 248.327 157.641 242.927C167.465 240.828 176.203 238.165 183.214 228.115C189.326 219.453 193.226 205.54 193.826 181.315Z" fill="#2F6792"/>
<path fill-rule="evenodd" clip-rule="evenodd" d="M183.208 164.343C182.571 152.029 188.646 149.814 192.883 148.611C192.433 147.973 191.832 147.223 191.159 146.359C188.985 143.693 186.245 140.237 184.035 134.87C183.697 134.044 182.684 132.242 181.372 129.876C175.785 119.852 164.76 100.066 166.935 86.5115C168.472 76.8635 175.823 70.4799 194.16 72.3947C194.123 72.2077 194.047 72.0193 193.974 71.8309C193.111 69.3536 191.724 66.0865 189.698 62.4453C181.67 47.8415 164.233 27.4557 133.182 26.9672C95.7208 26.3294 88.8945 63.6484 87.6581 79.3422C89.478 78.2165 91.3845 77.2374 93.3595 76.4142C96.507 75.1386 100.07 74.0486 103.633 73.4847C107.345 72.9223 111.095 72.9977 114.471 74.0472C119.758 75.6996 123.959 79.6422 125.609 87.1507C131.383 113.996 126.208 125.56 122.156 134.608C119.192 141.14 120.423 138.353 118.563 143.593C117.884 145.502 117.287 147.299 116.872 148.949C117.315 148.84 117.766 148.765 118.221 148.724C120.659 148.5 123.508 149.475 125.496 150.901C127.633 152.441 129.357 154.844 130.333 157.51C131.196 159.988 131.083 162.354 131.045 164.944C130.783 176.995 130.859 188.897 131.307 198.584C131.758 208.234 132.545 215.442 133.595 218.145C134.72 220.96 136.521 225.128 139.933 228.02C143.233 230.834 148.333 232.525 156.432 230.797C163.521 229.257 168.32 227.082 171.471 223.777C174.659 220.51 176.421 215.854 177.546 209.396C178.333 204.665 179.458 196.406 180.509 188.222C181.783 178.235 182.908 167.987 183.208 164.343ZM95.1938 170.239C107.53 167.685 108.77 166.147 112.745 161.078C114.169 159.265 115.697 157.535 117.32 155.898C117.707 155.498 118.228 155.256 118.783 155.221C119.682 155.146 120.957 155.634 121.746 156.198C122.796 156.949 123.695 158.226 124.221 159.652C124.707 161.118 124.897 162.919 123.957 164.233C119.344 170.654 113.681 173.356 108.393 174.257C103.032 175.195 97.9707 174.257 94.9303 173.506C93.4319 173.13 91.7061 172.416 90.5812 171.628C91.4802 171.177 92.983 170.689 95.1938 170.239ZM91.6308 146.736C90.6272 145.879 89.6753 144.964 88.7801 143.995C84.0951 138.85 80.9447 132.093 80.2324 124.547C79.9577 121.783 80.0204 118.996 80.4191 116.248C81.9943 104.948 81.3949 94.7722 81.0576 89.4786C80.9809 88.09 80.9056 87.0376 80.9447 86.2129C80.9056 85.9505 80.0456 51.9726 99.3562 32.9739C81.9205 27.2295 25.5551 13.4505 28.6317 75.4749C29.0819 84.5227 36.2442 121.504 47.12 147.298C50.5295 155.408 54.3198 162.354 58.3317 166.821C61.6688 170.538 65.0812 172.341 68.3808 171.139C70.1818 170.5 72.1305 168.999 74.1951 166.52C79.8007 159.746 85.6154 153.148 91.6308 146.736ZM160.521 26.254C178.184 34.064 189.284 48.2169 195.359 59.3318C197.227 62.6446 198.808 66.1114 200.085 69.6943C201.21 72.847 201.622 75.3256 201.434 76.4142C201.434 76.5273 201.398 76.6403 201.398 76.7519C201.548 81.3701 200.985 85.162 200.347 89.1423C199.896 92.2211 199.41 95.4129 199.259 99.1671C199.147 102.734 199.597 106.489 200.085 110.394C201.285 120.343 202.559 130.93 195.885 141.893C195.998 142.043 196.111 142.194 196.222 142.307C196.484 142.644 196.748 142.983 197.01 143.283C208.522 125.148 216.923 105.212 221.722 87.7537C227.271 67.6679 228.134 51.2971 223.559 45.4035C215.647 35.3033 205.973 29.785 196.333 26.9686C182.646 23.0245 168.996 24.5262 160.521 26.254ZM87.4322 86.1752C87.4322 87.1507 87.509 88.1277 87.5452 89.1032C87.881 94.5475 88.521 105.098 86.8328 117.15C86.4969 119.478 86.4564 121.768 86.6823 123.945C87.2102 129.779 89.634 135.278 93.5824 139.601C97.2946 143.693 102.207 146.47 107.609 147.223C108.584 147.373 109.596 147.41 110.572 147.447C111.062 145.46 111.746 143.402 112.53 141.248C113.607 138.281 113.904 137.076 116.235 131.942C119.91 123.757 124.596 113.32 119.234 88.5016C118.222 83.6965 115.671 81.2179 112.559 80.2423C110.197 79.49 107.423 79.49 104.573 79.9046C101.573 80.3554 98.5353 81.3309 95.7975 82.4195C91.0676 84.3734 87.4684 86.0244 87.4322 86.1752ZM106.669 83.4718C109.061 82.9587 112.315 83.3994 114.471 84.5604C115.708 85.2736 116.382 86.2129 116.269 87.2261C116.159 88.0146 115.37 89.1409 114.171 89.9671C113.047 90.7179 111.508 91.2818 109.858 91.0557H109.819C108.208 90.831 106.782 89.8917 105.77 88.8408C104.791 87.7899 104.18 86.6564 104.234 85.6809C104.287 84.7054 105 83.8893 106.669 83.4718ZM194.907 78.9668C180.057 77.1259 174.32 81.1816 173.308 87.5276C171.507 98.8656 181.783 117.338 187.031 126.761C188.456 129.278 189.507 131.23 189.995 132.393C190.557 133.67 191.12 134.871 191.719 135.922C195.618 127.663 194.606 119.178 193.632 111.143C193.144 106.976 192.658 102.92 192.769 98.9772C192.92 94.8853 193.445 91.4688 193.932 88.2016C194.421 85.162 194.871 82.2325 194.907 78.9668ZM196.746 154.244C196.258 154.395 195.695 154.544 195.133 154.731C192.883 155.37 189.32 156.346 189.695 164.08C189.997 164.38 190.971 164.68 192.433 164.944C194.721 165.433 197.758 165.508 200.984 165.356C206.608 165.02 212.608 163.817 216.435 162.054C220.373 160.213 223.672 157.998 225.696 156.046C217.247 157.621 204.411 160.038 196.746 154.244ZM188.872 83.4718C188.985 84.1473 188.421 85.3113 187.485 86.2882C186.35 87.4696 185.032 88.19 183.636 88.3465C182.551 88.4683 181.417 88.2494 180.285 87.6392C178.951 86.8985 177.974 85.8911 177.957 84.8779C177.945 84.185 178.381 83.4892 179.461 82.8703C180.361 82.3818 181.636 81.9687 183.062 81.744C184.486 81.5556 185.837 81.5933 186.849 81.8571C188.009 82.1209 188.757 82.6833 188.872 83.4718ZM200.645 149.626C202.145 151.054 207.208 153.268 224.196 149.739C227.496 149.063 229.821 149.214 231.321 149.927C233.271 150.865 234.134 152.405 233.983 154.431C233.908 155.67 233.346 156.946 232.408 158.262C230.232 161.265 225.246 165.095 219.133 167.949C214.596 170.051 207.658 171.479 201.32 171.854C197.608 172.041 194.045 171.89 191.158 171.328C190.445 171.177 189.733 170.99 189.095 170.803C188.57 175.571 187.781 182.253 186.92 189.012C185.869 197.497 184.706 205.907 183.92 210.488C182.569 218.259 180.321 223.967 176.157 228.283C171.993 232.6 166.182 235.341 157.782 237.144C147.282 239.397 140.381 236.919 135.732 233.013C131.157 229.146 128.982 224.001 127.594 220.547C126.207 217.132 125.305 209.135 124.818 198.884C124.483 191.414 124.332 182.591 124.406 173.428C119.68 177.709 114.47 179.81 109.518 180.676C102.958 181.801 96.9572 180.712 93.358 179.81C90.7317 179.135 87.4684 177.669 85.5559 175.868C84.431 174.815 83.681 173.579 83.4551 172.153C83.2322 170.499 83.7186 168.885 85.2562 167.459C86.7185 166.069 89.4186 164.831 93.9169 163.892C103.894 161.828 104.793 160.702 107.642 157.059C108.375 156.133 109.138 155.232 109.929 154.356C109.893 154.205 109.893 154.056 109.893 153.905C108.827 153.875 107.763 153.787 106.707 153.641C103.319 153.155 100.043 152.075 97.0296 150.451C94.3295 153.305 87.0934 161.151 79.1784 170.687C76.3682 174.104 73.4408 176.207 70.5177 177.258C64.3313 179.473 58.6661 176.882 53.4917 171.176C48.9934 166.144 44.8672 158.597 41.1551 149.813C29.9796 123.306 22.6306 85.1228 22.1413 75.7735C18.3176 -1.11846 93.2813 23.6985 105.205 28.1282C112.294 23.2854 121.445 20.2821 133.294 20.469C139.031 20.543 144.394 21.2561 149.306 22.4592C151.669 21.8214 155.006 20.8822 155.195 20.8068C155.645 20.6937 156.169 20.5821 156.845 20.4314C165.658 18.3658 181.783 16.0394 198.133 20.7691C208.932 23.8855 219.77 30.0807 228.658 41.4188C234.509 48.9272 234.021 67.4751 227.946 89.4757C222.734 108.402 213.433 130.178 200.645 149.626Z" fill="white"/>
</svg>
