<svg viewBox="0 0 256 256" fill="none" xmlns="http://www.w3.org/2000/svg">
<rect width="100%" height="100%" fill="white"/>
<path d="M103.367 111.992C105.054 111.632 106.787 111.377 108.521 111.223L122 109.92L103.693 89.4922C98.1842 83.3226 95.1417 75.3353 95.1417 66.9922H80C80 79.1775 84.4504 90.8771 92.5244 99.8838L103.367 111.992Z" fill="#212121"/>
<path d="M152.17 142.992C150.781 143.242 149.363 143.417 147.945 143.567L133 144.949L151.705 164.929C157.348 170.978 160.465 178.811 160.465 186.992H176C176 175.043 171.441 163.599 163.17 154.738L152.17 142.992Z" fill="#212121"/>
<path d="M177.393 97.6841C174.863 85.025 164.997 75.8123 152.27 74.1931L149.917 73.8837C141.967 72.8784 135.961 66.0341 135.961 57.9814V49.7209C143.014 46.7628 147.973 39.7638 147.973 31.6048C147.978 20.7729 139.264 12 128.505 12C117.746 12 109.032 20.7729 109.032 31.6048C109.032 39.5802 113.785 46.4534 120.583 49.5131V57.9766C120.583 73.8499 132.365 87.3113 148.007 89.2641L150.359 89.5734C157.695 90.5014 161.349 95.9537 162.318 100.739C163.288 105.524 162.035 111.982 155.621 115.713C152.476 117.54 149.077 118.647 145.476 118.981L110.131 122.325C104.303 122.891 98.7819 124.665 93.7217 127.599C82.6026 134.081 77.0574 146.435 79.6163 159.094C82.1465 171.753 92.0125 180.966 104.74 182.585L107.092 182.894C115.043 183.9 121.049 190.744 121.049 198.797V206.308C114.02 209.266 109.09 216.265 109.09 224.395C109.09 235.227 117.803 244 128.563 244C139.322 244 148.035 235.227 148.035 224.395C148.035 216.391 143.258 209.498 136.431 206.463V198.797C136.431 182.923 124.65 169.462 109.008 167.509L106.656 167.2C99.3196 166.272 95.6661 160.82 94.6963 156.035C93.7265 151.249 94.9795 144.792 101.394 141.06C104.538 139.233 107.937 138.126 111.538 137.793L146.883 134.448C152.712 133.882 158.233 132.109 163.293 129.175C174.407 122.693 179.924 110.343 177.393 97.6841Z" fill="#212121"/>
</svg>
