<svg viewBox="0 0 256 256" fill="none" xmlns="http://www.w3.org/2000/svg">
<rect width="100%" height="100%" fill="white"/>
<path d="M172.751 171.82C181.313 170.935 187.808 163.554 187.513 154.696C187.218 145.839 179.837 138.753 170.98 138.753H170.39C161.238 139.049 154.152 146.725 154.447 155.877C154.742 160.306 156.514 164.144 159.171 166.801C149.133 186.582 133.781 201.049 110.753 213.154C95.1061 221.421 78.8684 224.373 62.6308 222.306C49.3455 220.535 39.0124 214.63 32.5174 204.887C23.07 190.42 22.1843 174.773 30.1555 159.125C35.7649 147.906 44.6218 139.639 50.2311 135.506C49.0502 131.668 47.2788 125.172 46.3932 120.448C3.58484 151.449 8.01329 193.373 21.0034 213.154C30.746 227.916 50.5264 237.068 72.3734 237.068C78.278 237.068 84.1826 236.478 90.0872 235.002C127.877 227.621 156.514 205.182 172.751 171.82ZM224.712 135.21C202.274 108.934 169.209 94.4673 131.419 94.4673H126.696C124.039 89.153 118.429 85.6101 112.229 85.6101H111.639C102.487 85.9053 95.4013 93.5816 95.6965 102.734C95.9918 111.591 103.372 118.677 112.229 118.677H112.82C119.315 118.382 124.924 114.248 127.286 108.639H132.6C155.038 108.639 176.294 115.134 195.484 127.829C210.246 137.572 220.874 150.268 226.779 165.62C231.797 178.02 231.502 190.125 226.188 200.459C217.922 216.106 204.046 224.668 185.742 224.668C173.932 224.668 162.714 221.125 156.809 218.468C153.562 221.421 147.657 226.145 143.524 229.097C156.219 235.002 169.209 238.249 181.608 238.249C209.95 238.249 230.912 222.602 238.883 206.954C247.445 189.83 246.854 160.306 224.712 135.21ZM74.7352 176.839C75.0304 185.697 82.4112 192.782 91.2681 192.782H91.8585C101.011 192.487 108.096 184.811 107.801 175.658C107.506 166.801 100.125 159.715 91.2681 159.715H90.6776C90.0872 159.715 89.2015 159.715 88.611 160.011C76.5066 139.934 71.4877 118.087 73.2591 94.4673C74.44 76.7529 80.3446 61.4004 90.6776 48.705C99.2393 37.7811 115.772 32.4668 126.991 32.1715C158.285 31.5811 171.571 70.5528 172.456 86.2006C176.294 87.0863 182.789 89.153 187.218 90.6292C183.675 42.8002 154.152 18 125.81 18C99.2393 18 74.7352 37.1906 64.9926 65.5337C51.4121 103.325 60.269 139.639 76.8018 168.277C75.3257 170.344 74.44 173.592 74.7352 176.839Z" fill="#764ABC"/>
</svg>
