<svg viewBox="0 0 256 256" fill="none" xmlns="http://www.w3.org/2000/svg">
<rect width="256" height="256" fill="white"/>
<path d="M241.031 114.945L195.309 35.5546C191.351 28.661 181.615 23 173.654 23H82.3006C74.3845 23 64.6032 28.661 60.6452 35.5546L14.9685 114.945C11.0105 121.839 11.0105 133.115 14.9685 140.009L60.6452 219.445C64.6032 226.339 74.3391 232 82.3006 232H173.699C181.615 232 191.351 226.339 195.355 219.445L241.031 140.009C244.989 133.115 244.989 121.839 241.031 114.945ZM118.105 66.9183C118.105 61.7138 122.336 57.4681 127.522 57.4681C132.709 57.4681 136.94 61.7138 136.94 66.9183V123.391C136.94 128.596 132.709 132.841 127.522 132.841C122.336 132.841 118.105 128.596 118.105 123.391V66.9183ZM127.522 187.488C92.3094 187.488 63.6478 158.727 63.6478 123.391C63.6933 103.121 73.2472 84.0839 89.4433 71.9401C93.1738 69.1553 98.4057 69.9314 101.181 73.675C103.956 77.4185 103.183 82.6686 99.4521 85.4535C78.5701 101.021 74.2026 130.65 89.7162 151.605C105.23 172.56 134.756 176.942 155.638 161.375C167.603 152.472 174.655 138.365 174.655 123.391C174.609 108.371 167.512 94.2645 155.456 85.3165C151.725 82.5773 150.952 77.2816 153.682 73.538C156.411 69.7945 161.689 69.0184 165.419 71.7575C181.752 83.8556 191.351 103.03 191.397 123.391C191.397 158.772 162.735 187.488 127.522 187.488Z" fill="#6DB33F"/>
</svg>
