<svg viewBox="0 0 256 256" fill="none" xmlns="http://www.w3.org/2000/svg">
<rect width="100%" height="100%" fill="white"/>
<path d="M42.1871 225.78L35.0083 34.2823C34.7713 27.9579 39.6151 22.5981 45.9245 22.2033L208.622 12.0231C215.044 11.6213 220.576 16.5076 220.977 22.9371C220.992 23.1794 221 23.422 221 23.6647V232.336C221 238.778 215.784 244 209.348 244C209.174 244 209.001 243.997 208.826 243.988L53.3072 236.996C47.2504 236.723 42.4145 231.846 42.1871 225.78Z" fill="#FF4785"/>
<path fill-rule="evenodd" clip-rule="evenodd" d="M196.064 13L173.646 14.3977L172.552 40.6269C172.536 41.0301 172.66 41.4266 172.905 41.7482C173.486 42.5119 174.578 42.6615 175.343 42.082L185.556 34.3533L194.182 41.1324C194.506 41.3864 194.909 41.5179 195.32 41.5036C196.281 41.4702 197.033 40.6664 196.999 39.7082L196.064 13ZM178.616 100.833C174.512 104.013 143.943 106.183 143.943 101.656C144.589 84.3808 136.836 83.6235 132.529 83.6235C128.437 83.6235 121.546 84.8574 121.546 94.1119C121.546 103.543 131.617 108.867 143.438 115.116C160.231 123.993 180.553 134.738 180.553 161.773C180.553 187.686 159.449 202 132.529 202C104.748 202 80.47 190.788 83.2119 151.914C84.2887 147.35 119.607 148.434 119.607 151.914C119.177 167.955 122.838 172.673 132.098 172.673C139.205 172.673 142.435 168.765 142.435 162.184C142.435 152.225 131.942 146.347 119.871 139.587C103.526 130.432 84.2887 119.658 84.2887 94.9346C84.2887 70.2557 101.302 53.8031 131.667 53.8031C162.033 53.8031 178.616 70.0037 178.616 100.833Z" fill="white"/>
</svg>
