<svg viewBox="0 0 256 256" fill="none" xmlns="http://www.w3.org/2000/svg">
<rect width="100%" height="100%" fill="white"/>
<path d="M70 101.333C77.7333 65.7778 97.0667 48 128 48C174.4 48 180.2 88 203.4 94.6667C218.867 99.1111 232.4 92.4444 244 74.6667C236.267 110.222 216.933 128 186 128C139.6 128 133.8 88 110.6 81.3333C95.1333 76.8889 81.6 83.5556 70 101.333ZM12 181.333C19.7333 145.778 39.0667 128 70 128C116.4 128 122.2 168 145.4 174.667C160.867 179.111 174.4 172.444 186 154.667C178.267 190.222 158.933 208 128 208C81.6 208 75.8 168 52.6 161.333C37.1333 156.889 23.6 163.556 12 181.333Z" fill="#44A8B3"/>
</svg>
