<svg viewBox="0 0 256 256" fill="none" xmlns="http://www.w3.org/2000/svg">
<rect width="100%" height="100%" fill="white"/>
<path d="M243.236 46.8114L134.723 240.979C132.483 244.988 126.727 245.012 124.453 241.022L13.789 46.8301C11.3116 42.4827 15.0266 37.2168 19.9498 38.0974L128.578 57.527C129.271 57.6509 129.981 57.6497 130.674 57.5234L237.03 38.1252C241.937 37.2304 245.67 42.4554 243.236 46.8114Z" fill="url(#paint0_linear_222_373)"/>
<path d="M180.687 12.0572L100.327 27.8654C99.0062 28.1252 98.0283 29.2489 97.9486 30.5975L93.0053 114.414C92.8891 116.388 94.695 117.92 96.6142 117.476L118.988 112.292C121.081 111.807 122.972 113.658 122.542 115.772L115.895 148.449C115.448 150.649 117.505 152.529 119.644 151.877L133.463 147.662C135.605 147.009 137.664 148.895 137.21 151.096L126.647 202.425C125.986 205.636 130.24 207.387 132.014 204.634L133.199 202.796L198.681 71.6012C199.777 69.4046 197.886 66.8998 195.483 67.3654L172.454 71.8276C170.289 72.2465 168.448 70.2231 169.059 68.0974L184.09 15.7855C184.701 13.6562 182.854 11.6311 180.687 12.0572Z" fill="url(#paint1_linear_222_373)"/>
<defs>
<linearGradient id="paint0_linear_222_373" x1="11.0871" y1="31.1581" x2="146.255" y2="214.606" gradientUnits="userSpaceOnUse">
<stop stop-color="#41D1FF"/>
<stop offset="1" stop-color="#BD34FE"/>
</linearGradient>
<linearGradient id="paint1_linear_222_373" x1="122.665" y1="16.3491" x2="147.301" y2="184.69" gradientUnits="userSpaceOnUse">
<stop stop-color="#FFEA83"/>
<stop offset="0.0833333" stop-color="#FFDD35"/>
<stop offset="1" stop-color="#FFA800"/>
</linearGradient>
</defs>
</svg>
