<svg viewBox="0 0 256 256" fill="none" xmlns="http://www.w3.org/2000/svg">
  <path d="M121.343 20.4893C123.438 14.0402 132.562 14.0402 134.657 20.4894L155.166 83.6089C156.103 86.4931 158.791 88.4458 161.824 88.4458H228.191C234.973 88.4458 237.792 97.1231 232.306 101.109L178.613 140.119C176.16 141.902 175.133 145.061 176.07 147.945L196.579 211.065C198.675 217.514 191.293 222.877 185.807 218.891L132.114 179.881C129.661 178.098 126.339 178.098 123.886 179.881L70.1928 218.891C64.7068 222.877 57.3254 217.514 59.4209 211.065L79.9297 147.945C80.8668 145.061 79.8402 141.902 77.3868 140.119L23.694 101.109C18.208 97.1231 21.0275 88.4458 27.8085 88.4458H94.1764C97.209 88.4458 99.8967 86.4931 100.834 83.6089L121.343 20.4893Z" fill="currentColor"/>
</svg>
