<svg viewBox="0 0 256 256" fill="none" xmlns="http://www.w3.org/2000/svg">
<path d="M0 0H256V256H0V0Z" fill="#F7DF1E"/>
<path d="M67.3115 213.931L86.9016 202.075C90.6816 208.776 94.1195 214.446 102.367 214.446C110.272 214.446 115.257 211.354 115.257 199.326V117.528H139.314V199.666C139.314 224.583 124.708 235.925 103.398 235.925C84.1526 235.925 72.9815 225.958 67.3105 213.929M152.381 211.353L171.969 200.012C177.126 208.433 183.828 214.619 195.684 214.619C205.653 214.619 212.009 209.635 212.009 202.761C212.009 194.513 205.479 191.591 194.481 186.781L188.468 184.201C171.111 176.814 159.598 167.534 159.598 147.944C159.598 129.9 173.345 116.152 194.826 116.152C210.12 116.152 221.118 121.48 229.022 135.399L210.29 147.429C206.165 140.04 201.699 137.119 194.825 137.119C187.779 137.119 183.311 141.587 183.311 147.429C183.311 154.646 187.779 157.569 198.089 162.037L204.103 164.614C224.553 173.379 236.066 182.314 236.066 202.418C236.066 224.072 219.054 235.928 196.199 235.928C173.86 235.928 159.425 225.274 152.38 211.354" fill="black"/>
</svg>
