<svg viewBox="0 0 256 256" fill="none" xmlns="http://www.w3.org/2000/svg">
<rect width="100%" height="100%" fill="white"/>
<path d="M98.9718 189C98.9718 189 90.2496 193.573 105.179 195.12C123.266 196.981 132.51 196.714 152.441 193.313C152.441 193.313 157.682 196.275 165 198.841C120.318 216.106 63.8769 197.841 98.9718 189Z" fill="#5382A1"/>
<path d="M94.0302 165C94.0302 165 84.4498 171.66 99.0812 173.082C118.002 174.915 132.944 175.065 158.8 170.389C158.8 170.389 162.377 173.794 168 175.656C115.095 190.186 56.169 176.802 94.0302 165Z" fill="#5382A1"/>
<path d="M137.115 121.919C148.143 134.068 134.217 145 134.217 145C134.217 145 162.219 131.169 149.359 113.848C137.348 97.696 128.138 89.6706 178 62C178 62 99.7328 80.7041 137.115 121.919Z" fill="#F8981D"/>
<path d="M195.746 205.909C195.746 205.909 201.985 211.167 188.874 215.235C163.943 222.96 85.1103 225.293 63.2107 215.543C55.3384 212.04 70.1012 207.179 74.7451 206.159C79.5881 205.085 82.3557 205.285 82.3557 205.285C73.6009 198.976 25.7681 217.671 58.059 223.025C146.121 237.633 218.588 216.448 195.746 205.909Z" fill="#5382A1"/>
<path d="M103.798 138.041C103.798 138.041 63.6405 148.832 89.577 152.75C100.528 154.409 122.359 154.034 142.694 152.106C159.313 150.52 176 147.148 176 147.148C176 147.148 170.14 149.987 165.9 153.262C125.122 165.396 46.3446 159.751 69.0235 147.34C88.2031 136.851 103.798 138.041 103.798 138.041Z" fill="#5382A1"/>
<path d="M175.83 179.877C217.149 157.586 198.045 136.165 184.711 139.051C181.442 139.757 179.985 140.369 179.985 140.369C179.985 140.369 181.198 138.396 183.516 137.542C209.895 127.913 230.183 165.939 175 181C175 181 175.639 180.407 175.83 179.877Z" fill="#5382A1"/>
<path d="M151.003 18C151.003 18 174.378 40.7354 128.833 75.696C92.3102 103.74 120.504 119.731 128.817 138C107.499 119.298 91.8536 102.834 102.35 87.5115C117.755 65.019 160.434 54.1138 151.003 18Z" fill="#F8981D"/>
<path d="M107.336 237.336C147.252 239.77 208.548 235.986 210 218C210 218 207.209 224.819 177.011 230.233C142.942 236.339 100.922 235.626 76 231.713C76 231.713 81.1019 235.734 107.336 237.336Z" fill="#5382A1"/>
</svg>
