<svg width="16" height="16" viewBox="0 0 16 16" fill="none" xmlns="http://www.w3.org/2000/svg">
<path fill="currentColor" d="M6.287 12.135C6.637 14.45 7.274 16 8 16C8.726 16 9.362 14.451 9.713 12.135C11.599 13.525 13.143 14.171 13.657 13.657C14.171 13.143 13.525 11.599 12.134 9.713C14.451 9.363 16 8.726 16 8C16 7.274 14.451 6.638 12.135 6.287C13.525 4.401 14.171 2.857 13.657 2.343C13.143 1.829 11.599 2.475 9.713 3.866C9.363 1.549 8.726 0 8 0C7.274 0 6.638 1.549 6.287 3.866C4.401 2.476 2.857 1.83 2.343 2.343C1.829 2.856 2.475 4.402 3.865 6.287C1.55 6.637 0 7.274 0 8C0 8.726 1.549 9.362 3.866 9.713C2.476 11.599 1.83 13.143 2.343 13.657C2.856 14.171 4.402 13.525 6.287 12.135Z"/>
</svg>
