<svg viewBox="0 0 256 256" fill="none" xmlns="http://www.w3.org/2000/svg">
  <path d="M32 32H64C99.3462 32 128 60.6538 128 96V128H96C60.6538 128 32 99.3462 32 64V32Z" fill="currentColor"/>
  <path d="M128 128V160C128 195.346 99.3462 224 64 224H32L32 192C32 156.654 60.6538 128 96 128H128Z" fill="currentColor"/>
  <path d="M224 32V64C224 99.3462 195.346 128 160 128H128V96C128 60.6538 156.654 32 192 32L224 32Z" fill="currentColor"/>
  <path d="M128 128H160C195.346 128 224 156.654 224 192V224H192C156.654 224 128 195.346 128 160V128Z" fill="currentColor"/>
</svg>
