<svg viewBox="0 0 256 256" fill="none" xmlns="http://www.w3.org/2000/svg">
  <path d="M224 224C211.393 224 198.91 221.517 187.262 216.692C175.615 211.868 165.032 204.797 156.118 195.882C147.203 186.968 140.132 176.385 135.308 164.738C130.483 153.09 128 140.607 128 128C128 115.393 130.483 102.91 135.308 91.2624C140.132 79.6151 147.203 69.0322 156.118 60.1177C165.032 51.2033 175.615 44.132 187.262 39.3076C198.91 34.4831 211.393 32 224 32L224 128L224 224Z" fill="currentColor"/>
  <path d="M32 32C44.6069 32 57.0904 34.4831 68.7376 39.3076C80.3849 44.132 90.9678 51.2033 99.8823 60.1178C108.797 69.0322 115.868 79.6151 120.692 91.2624C125.517 102.91 128 115.393 128 128C128 140.607 125.517 153.09 120.692 164.738C115.868 176.385 108.797 186.968 99.8822 195.882C90.9678 204.797 80.3849 211.868 68.7376 216.692C57.0903 221.517 44.6069 224 32 224L32 128L32 32Z" fill="currentColor"/>
</svg>
