<svg viewBox="0 0 256 256" fill="none" xmlns="http://www.w3.org/2000/svg">
  <path d="M118.221 18.9801C122.317 11.0306 133.683 11.0306 137.779 18.9801L153.126 48.7701C155.587 53.5468 161.139 55.8465 166.257 54.209L198.174 43.9968C206.691 41.2717 214.728 49.3086 212.003 57.8258L201.791 89.743C200.154 94.8608 202.453 100.413 207.23 102.874L237.02 118.221C244.969 122.317 244.969 133.683 237.02 137.779L207.23 153.126C202.453 155.587 200.153 161.139 201.791 166.257L212.003 198.174C214.728 206.691 206.691 214.728 198.174 212.003L166.257 201.791C161.139 200.154 155.587 202.453 153.126 207.23L137.779 237.02C133.683 244.969 122.317 244.969 118.221 237.02L102.874 207.23C100.413 202.453 94.8608 200.153 89.743 201.791L57.8258 212.003C49.3086 214.728 41.2717 206.691 43.9968 198.174L54.209 166.257C55.8465 161.139 53.5468 155.587 48.7701 153.126L18.9801 137.779C11.0306 133.683 11.0306 122.317 18.9801 118.221L48.7701 102.874C53.5468 100.413 55.8465 94.8608 54.209 89.743L43.9968 57.8258C41.2717 49.3086 49.3086 41.2717 57.8258 43.9968L89.743 54.209C94.8608 55.8465 100.413 53.5468 102.874 48.7701L118.221 18.9801Z" fill="currentColor"/> 
</svg>
