<svg viewBox="0 0 256 256" fill="none" xmlns="http://www.w3.org/2000/svg">
<rect width="100%" height="100%" fill="white"/>
<path d="M221.154 126.704C221.154 120.938 218.86 115.409 214.779 111.331C210.697 107.254 205.161 104.964 199.388 104.964C198.624 104.963 197.86 105.002 197.1 105.081L227 17H99.9404L129.799 105.005C129.365 105.005 128.922 104.964 128.479 104.964C123.282 104.958 118.254 106.81 114.304 110.185C110.355 113.56 107.745 118.236 106.947 123.366C106.149 128.496 107.215 133.742 109.953 138.155C112.69 142.568 116.919 145.857 121.873 147.427C117.243 155.39 111.478 162.638 104.76 168.943C96.0139 177.294 85.6235 183.734 74.2496 187.855C67.877 184.839 62.8931 179.512 60.3102 172.958C57.7273 166.403 57.7392 159.112 60.3434 152.566C60.9865 151.065 61.638 149.546 62.256 148.028C67.109 146.886 71.4228 144.116 74.4764 140.179C77.5301 136.242 79.1388 131.378 79.0336 126.399C78.9285 121.42 77.1158 116.628 73.8986 112.824C70.6814 109.019 66.2545 106.433 61.3577 105.497C56.4608 104.561 51.3907 105.331 46.9944 107.681C42.5981 110.03 39.1421 113.814 37.2038 118.403C35.2655 122.991 34.9623 128.105 36.345 132.889C37.7276 137.674 40.7123 141.84 44.8003 144.691C37.8527 157.274 32.5504 170.695 29.0233 184.627C26.0667 202.438 29.0233 221.334 44.4328 232.021C80.3466 256.89 119.342 216.604 160.451 206.484C175.351 202.813 191.704 203.406 204.825 195.814C209.566 193.117 213.654 189.411 216.799 184.959C219.944 180.507 222.07 175.417 223.024 170.052C223.897 164.94 223.733 159.705 222.541 154.657C221.348 149.61 219.153 144.853 216.084 140.67C219.358 136.761 221.15 131.826 221.145 126.729L221.154 126.704ZM150.253 126.821V126.746C150.259 123.005 149.297 119.325 147.458 116.066C145.62 112.806 142.969 110.076 139.763 108.142L163.516 60.0809L187.319 108.584C184.333 110.567 181.885 113.256 180.193 116.414C178.501 119.571 177.618 123.098 177.623 126.679C177.623 126.838 177.623 126.996 177.623 127.155L150.253 126.821Z" fill="#C63D14"/>
<path d="M225.159 126.227C225.151 119.966 222.97 113.904 218.993 109.085C215.015 104.267 209.49 100.993 203.368 99.8285L233 12H92.9382L122.619 100.003C117.438 101.166 112.718 103.855 109.064 107.726C105.409 111.597 102.985 116.474 102.1 121.736C101.216 126.997 101.911 132.404 104.097 137.266C106.283 142.129 109.861 146.227 114.375 149.037C110.646 154.604 106.31 159.734 101.447 164.333C93.9191 171.571 85.0731 177.282 75.3933 181.153C70.8507 178.503 67.4072 174.3 65.6909 169.311C63.9746 164.322 64.0999 158.879 66.0438 153.976L66.3736 153.205L66.9837 151.755C72.4787 149.84 77.2033 146.179 80.4419 141.324C83.6806 136.469 85.2569 130.686 84.9323 124.85C84.6076 119.015 82.3996 113.444 78.6426 108.983C74.8857 104.521 69.7844 101.411 64.1112 100.124C58.4381 98.8372 52.5022 99.443 47.2023 101.85C41.9024 104.257 37.5273 108.334 34.7395 113.463C31.9517 118.593 30.9031 124.496 31.7523 130.278C32.6016 136.06 35.3026 141.406 39.4462 145.508C38.5558 147.422 37.6159 149.36 36.6513 151.357C31.3056 161.235 27.4174 171.841 25.1086 182.843C21.2748 206.043 27.4584 224.628 42.5133 235.109C50.5951 240.917 60.2883 244.027 70.2239 244C87.8017 244 105.586 235.126 122.99 226.442C135.151 219.796 147.98 214.469 161.262 210.55C166.02 209.374 170.917 208.661 176.103 207.907C186.668 207.059 196.971 204.167 206.444 199.39C211.786 196.323 216.392 192.113 219.935 187.059C223.479 182.004 225.873 176.229 226.948 170.141C228.7 159.798 226.677 149.168 221.251 140.205C223.818 135.996 225.173 131.155 225.167 126.218L225.159 126.227ZM214.664 126.227C214.664 129.455 213.711 132.611 211.926 135.295C210.142 137.98 207.605 140.072 204.637 141.307C201.669 142.543 198.404 142.866 195.253 142.236C192.102 141.606 189.208 140.052 186.937 137.769C184.665 135.486 183.118 132.578 182.491 129.411C181.865 126.245 182.186 122.963 183.416 119.98C184.645 116.998 186.727 114.448 189.398 112.655C192.069 110.861 195.209 109.904 198.422 109.904C202.728 109.908 206.857 111.629 209.902 114.69C212.947 117.75 214.659 121.899 214.664 126.227ZM218.349 22.5477L192.18 100.102C191.06 100.374 189.958 100.72 188.882 101.138L163.035 48.1091L137.105 100.823C135.976 100.43 134.822 100.114 133.651 99.8782L107.573 22.5477H218.349ZM128.424 109.904C131.636 109.904 134.776 110.861 137.447 112.655C140.118 114.448 142.2 116.998 143.429 119.98C144.659 122.963 144.98 126.245 144.354 129.411C143.727 132.578 142.18 135.486 139.909 137.769C137.637 140.052 134.743 141.606 131.592 142.236C128.442 142.866 125.176 142.543 122.208 141.307C119.24 140.072 116.703 137.98 114.919 135.295C113.134 132.611 112.181 129.455 112.181 126.227C112.186 121.899 113.898 117.75 116.943 114.69C119.989 111.629 124.117 109.908 128.424 109.904ZM58.1618 110.061C61.3756 110.063 64.5167 111.023 67.1875 112.819C69.8583 114.616 71.9388 117.168 73.1656 120.153C74.3925 123.138 74.7105 126.422 74.0795 129.589C73.4486 132.756 71.8969 135.663 69.6209 137.944C67.345 140.224 64.447 141.775 61.2939 142.399C58.1407 143.024 54.8741 142.694 51.9074 141.452C48.9408 140.21 46.4075 138.111 44.6281 135.422C42.8487 132.732 41.9033 129.573 41.9114 126.343C41.9158 122.015 43.6284 117.866 46.6735 114.806C49.7185 111.745 53.8472 110.024 58.1536 110.02L58.1618 110.061ZM216.601 168.343C215.786 172.91 213.982 177.242 211.316 181.03C208.651 184.819 205.188 187.972 201.175 190.267C192.849 194.33 183.833 196.773 174.602 197.467C169.392 198.221 164.008 199 158.74 200.309C144.715 204.391 131.17 209.983 118.34 216.988C92.2539 230.005 69.6962 241.249 48.4907 226.459C32.9329 215.621 33.6502 195.57 35.464 184.583C37.5986 174.585 41.1586 164.948 46.0338 155.972C46.7923 154.406 47.5343 152.865 48.2599 151.341C50.4745 152.23 52.7985 152.816 55.169 153.081C53.0706 160.529 53.6569 168.483 56.8246 175.54C59.9922 182.597 65.5377 188.302 72.483 191.651L74.5029 192.695L76.6383 191.932C88.5494 187.612 99.4312 180.839 108.587 172.047C114.634 166.329 119.947 159.875 124.4 152.832C130.098 153.703 135.924 152.699 141.008 149.97C146.092 147.241 150.161 142.933 152.609 137.69C155.057 132.446 155.753 126.547 154.592 120.873C153.43 115.2 150.475 110.056 146.166 106.209L162.969 72.0631L179.945 106.863C175.115 111.541 172.213 117.874 171.816 124.604C171.419 131.333 173.555 137.967 177.801 143.186C182.047 148.405 188.092 151.827 194.733 152.773C201.375 153.719 208.128 152.119 213.65 148.292C216.711 154.502 217.736 161.528 216.576 168.36L216.601 168.343Z" fill="white"/>
</svg>
