<svg viewBox="0 0 256 256" fill="none" xmlns="http://www.w3.org/2000/svg">
<rect width="100%" height="100%" fill="white"/>
<path d="M244 128.327C244 112.958 224.753 98.3926 195.245 89.3604C202.055 59.2846 199.028 35.3563 185.693 27.6955C182.619 25.8985 179.025 25.0473 175.1 25.0473V35.5927C177.275 35.5927 179.025 36.0183 180.491 36.8223C186.922 40.5108 189.712 54.5556 187.537 72.6201C187.017 77.0652 186.166 81.7468 185.125 86.523C175.857 84.2532 165.737 82.5035 155.097 81.3685C148.713 72.6201 142.092 64.6755 135.424 57.724C150.841 43.3954 165.311 35.5455 175.147 35.5455V25C162.143 25 145.119 34.2687 127.905 50.3469C110.692 34.3632 93.6682 25.1892 80.6637 25.1892V35.7346C90.4525 35.7346 104.97 43.5373 120.386 57.7713C113.766 64.7228 107.146 72.6201 100.856 81.3685C90.1688 82.5035 80.0489 84.2532 70.7803 86.5703C69.6926 81.8414 68.8887 77.2544 68.3212 72.8565C66.0987 54.7921 68.8414 40.7473 75.2254 37.0114C76.6441 36.1602 78.4884 35.7819 80.6637 35.7819V25.2364C76.6914 25.2364 73.0974 26.0876 69.9764 27.8846C56.6881 35.5455 53.7089 59.4264 60.5658 89.4077C31.1521 98.4872 12 113.005 12 128.327C12 143.695 31.2466 158.261 60.755 167.293C53.9454 197.369 56.9719 221.297 70.3074 228.958C73.3812 230.755 76.9751 231.606 80.9474 231.606C93.9519 231.606 110.976 222.337 128.189 206.259C145.402 222.243 162.426 231.417 175.431 231.417C179.403 231.417 182.997 230.565 186.118 228.768C199.406 221.108 202.386 197.227 195.529 167.245C224.848 158.213 244 143.648 244 128.327ZM182.43 96.7848C180.68 102.885 178.505 109.174 176.046 115.464C174.107 111.681 172.073 107.898 169.851 104.115C167.676 100.331 165.358 96.6429 163.041 93.0489C169.756 94.042 176.235 95.2715 182.43 96.7848ZM160.771 147.148C157.083 153.532 153.3 159.585 149.375 165.212C142.329 165.827 135.188 166.158 128 166.158C120.859 166.158 113.719 165.827 106.72 165.259C102.795 159.632 98.9645 153.626 95.276 147.289C91.682 141.095 88.4191 134.805 85.4399 128.468C88.3718 122.132 91.682 115.795 95.2287 109.6C98.9173 103.216 102.7 97.1631 106.625 91.5357C113.671 90.9209 120.812 90.5899 128 90.5899C135.141 90.5899 142.281 90.9209 149.28 91.4884C153.205 97.1158 157.035 103.121 160.724 109.458C164.318 115.653 167.581 121.943 170.56 128.279C167.581 134.616 164.318 140.953 160.771 147.148ZM176.046 141C178.599 147.337 180.775 153.673 182.572 159.821C176.377 161.334 169.851 162.611 163.088 163.604C165.406 159.963 167.723 156.227 169.898 152.397C172.073 148.614 174.107 144.783 176.046 141ZM128.095 191.457C123.697 186.918 119.299 181.858 114.948 176.325C119.204 176.514 123.555 176.656 127.953 176.656C132.398 176.656 136.796 176.561 141.099 176.325C136.843 181.858 132.445 186.918 128.095 191.457ZM92.9115 163.604C86.1965 162.611 79.7179 161.382 73.523 159.868C75.2727 153.768 77.448 147.479 79.9071 141.189C81.8459 144.972 83.8793 148.755 86.1019 152.539C88.3245 156.322 90.5944 160.01 92.9115 163.604ZM127.858 65.1957C132.256 69.7354 136.654 74.7954 141.004 80.3282C136.748 80.139 132.398 79.9972 128 79.9972C123.555 79.9972 119.157 80.0917 114.854 80.3282C119.11 74.7954 123.508 69.7354 127.858 65.1957ZM92.8643 93.0489C90.5471 96.6902 88.2299 100.426 86.0546 104.256C83.8793 108.04 81.8459 111.823 79.9071 115.606C77.3534 109.269 75.1782 102.932 73.3812 96.7848C79.576 95.3188 86.1019 94.042 92.8643 93.0489ZM50.0677 152.255C33.3274 145.114 22.4982 135.751 22.4982 128.327C22.4982 120.902 33.3274 111.492 50.0677 104.398C54.1345 102.649 58.5797 101.088 63.1667 99.6221C65.8622 108.891 69.4089 118.538 73.8068 128.421C69.4562 138.257 65.9568 147.857 63.3086 157.078C58.627 155.612 54.1818 154.004 50.0677 152.255ZM75.5092 219.831C69.0779 216.142 66.2878 202.097 68.4631 184.033C68.9833 179.588 69.8345 174.906 70.8749 170.13C80.1435 172.4 90.2634 174.15 100.903 175.285C107.287 184.033 113.908 191.978 120.576 198.929C105.159 213.258 90.689 221.108 80.8528 221.108C78.7248 221.06 76.9279 220.635 75.5092 219.831ZM187.679 183.797C189.901 201.861 187.159 215.906 180.775 219.642C179.356 220.493 177.512 220.871 175.336 220.871C165.547 220.871 151.03 213.069 135.614 198.835C142.234 191.883 148.854 183.986 155.144 175.237C165.831 174.102 175.951 172.353 185.22 170.035C186.307 174.812 187.159 179.399 187.679 183.797ZM205.885 152.255C201.818 154.004 197.373 155.565 192.786 157.031C190.091 147.762 186.544 138.115 182.146 128.232C186.497 118.396 189.996 108.796 192.644 99.5748C197.326 101.041 201.771 102.649 205.932 104.398C222.673 111.539 233.502 120.902 233.502 128.327C233.455 135.751 222.625 145.161 205.885 152.255Z" fill="#61DAFB"/>
<path d="M127.954 149.935C139.889 149.935 149.565 140.259 149.565 128.324C149.565 116.389 139.889 106.713 127.954 106.713C116.018 106.713 106.343 116.389 106.343 128.324C106.343 140.259 116.018 149.935 127.954 149.935Z" fill="#61DAFB"/>
</svg>
