<svg viewBox="0 0 256 256" fill="none" xmlns="http://www.w3.org/2000/svg">
<rect width="100%" height="100%" fill="white"/>
<path d="M211.747 140.535C204.462 140.545 197.275 142.203 190.729 145.384C188.679 141.999 187.096 138.354 186.023 134.549C185.406 131.566 185.264 128.505 185.6 125.478C186.308 122.148 187.227 118.865 188.351 115.649C188.309 115.229 187.846 113.241 183.181 113.175C178.517 113.109 174.499 114.058 174.068 115.286C173.258 117.53 172.607 119.828 172.121 122.163C168.261 131.642 163.509 140.737 157.929 149.326C154.803 144.225 153.517 138.216 154.284 132.289C154.992 128.959 155.91 125.676 157.034 122.46C156.993 122.04 156.529 120.052 151.864 119.986C147.2 119.921 143.182 120.869 142.751 122.097C142.32 123.326 141.773 126.22 140.804 128.975C139.835 131.729 128.518 156.895 125.552 163.385C124.027 166.683 122.71 169.371 121.782 171.186C121.738 171.303 121.683 171.417 121.616 171.524C120.788 173.082 120.349 173.931 120.349 173.931V173.973C119.711 175.111 119.031 176.166 118.692 176.166C118.099 173.81 118.128 171.342 118.775 169C120.432 160.268 124.491 146.695 124.45 146.225C124.45 145.969 125.212 143.611 121.823 142.391C121.038 142.019 120.155 141.898 119.297 142.046C118.44 142.193 117.649 142.602 117.035 143.215C116.737 143.215 116.529 143.933 116.529 143.933C116.529 143.933 120.216 128.669 109.496 128.669C105.321 129.505 101.356 131.164 97.8346 133.547C94.3132 135.93 91.3062 138.99 88.9905 142.547C86.1074 144.106 79.9683 147.437 73.3984 151.024C70.9129 152.418 68.3115 153.811 65.9006 155.147C65.7349 154.982 65.5609 154.768 65.3952 154.603C52.3465 140.766 28.3618 131.003 29.3974 112.491C29.7786 105.746 32.1066 88.0334 75.453 66.5197C111.128 49.0218 139.52 53.8705 144.433 64.6232C151.467 79.9771 129.222 108.483 92.3624 112.615C88.2847 113.438 84.0731 113.339 80.0392 112.324C76.0052 111.309 72.252 109.405 69.0571 106.752C67.1102 104.641 66.8119 104.517 66.0911 104.938C64.9064 105.573 65.6686 107.469 66.0911 108.566C67.4973 111.099 69.3992 113.325 71.6845 115.114C73.9698 116.903 76.5922 118.217 79.3966 118.98C93.8971 122.099 109.015 120.608 122.619 114.717C144.988 106.117 162.386 82.2035 157.283 62.1741C152.154 41.8479 118.261 35.1439 86.1819 46.5068C66.0891 53.2361 47.5233 63.8357 31.5432 77.7013C13.8716 94.1519 11.0796 108.442 12.2229 114.437C16.3654 135.695 45.7849 149.523 57.5577 159.79C56.9612 160.128 56.4144 160.425 55.9504 160.672C50.0599 163.583 27.6079 175.267 21.9825 187.62C15.628 201.638 23.0015 211.657 27.873 213.009C35.2135 214.758 42.9194 214.182 49.915 211.361C56.9106 208.541 62.8468 203.616 66.8948 197.276C70.3418 192.017 72.4606 186.006 73.0708 179.756C73.681 173.506 72.7644 167.202 70.3993 161.381C70.3593 161.287 70.3032 161.201 70.2336 161.126L74.8482 158.429C77.8556 156.656 80.8216 155.015 83.3651 153.663C81.6403 158.614 80.6278 163.783 80.3577 169.017C79.7721 177.038 82.2385 184.986 87.2672 191.281C88.0324 191.937 88.9208 192.434 89.8807 192.746C90.8407 193.057 91.8532 193.176 92.8595 193.095C97.8305 193.095 100.109 188.972 102.603 184.074C105.651 178.087 108.402 171.128 108.402 171.128C108.402 171.128 104.972 189.937 114.292 189.937C117.681 189.937 121.111 185.55 122.644 183.34V183.381C122.644 183.381 122.726 183.258 122.9 182.961L123.447 182.078V181.996C124.806 179.638 127.855 174.278 132.387 165.38C138.236 153.91 143.869 139.571 143.869 139.571C144.413 142.722 145.163 145.835 146.115 148.889C147.479 152.59 149.093 156.197 150.945 159.682C149.586 161.579 148.741 162.635 148.741 162.635L148.782 162.676C147.68 164.111 146.496 165.669 145.178 167.186C141.259 171.475 137.623 176.011 134.292 180.767C133.797 181.566 133.627 182.523 133.817 183.442C134.006 184.362 134.54 185.174 135.311 185.715C137.055 186.618 139.043 186.945 140.986 186.647C143.915 186.482 146.794 185.827 149.503 184.709C152.121 183.792 154.591 182.5 156.835 180.875C159.149 179.279 161.011 177.119 162.243 174.6C163.475 172.082 164.035 169.29 163.869 166.494C163.609 162.971 162.705 159.526 161.201 156.326C161.624 155.733 162.03 155.147 162.428 154.553C167.138 147.556 171.383 140.259 175.137 132.71C175.68 135.861 176.43 138.974 177.382 142.028C178.507 145.227 179.893 148.329 181.524 151.305C176.105 155.454 171.837 160.908 169.122 167.153C166.454 174.83 168.525 178.285 172.436 179.085C174.575 179.232 176.715 178.796 178.624 177.824C181.432 176.905 184.077 175.553 186.462 173.816C188.977 172.339 191.083 170.262 192.592 167.774C194.1 165.285 194.963 162.462 195.103 159.559C194.915 156.661 194.258 153.812 193.156 151.123C200.307 148.343 208.06 147.456 215.658 148.55C235.823 150.909 239.808 163.434 239.046 168.712C238.689 170.583 237.933 172.356 236.83 173.912C235.726 175.468 234.301 176.771 232.65 177.733C231.25 178.615 230.786 178.912 230.91 179.547C231.076 180.479 231.739 180.429 232.94 180.264C235.979 179.324 238.661 177.489 240.631 175.001C242.601 172.513 243.767 169.49 243.976 166.329C244.613 153.96 232.75 140.395 211.772 140.519L211.747 140.535ZM56.1576 192.716C49.4634 199.972 40.1429 202.71 36.1165 200.393C31.7918 197.919 33.4902 187.199 41.7088 179.514C46.584 175.146 51.8534 171.235 57.45 167.829C58.4276 167.236 59.8692 166.395 61.5924 165.356L62.0564 165.1L63.0754 164.465C64.5437 169.362 64.6769 174.559 63.4612 179.523C62.2455 184.488 59.7248 189.041 56.1576 192.716ZM104.881 159.732C102.553 165.38 97.6813 179.852 94.7153 179.044C92.1719 178.368 90.5729 167.401 94.21 156.566C96.0463 151.35 98.7212 146.465 102.13 142.102C105.776 138.053 109.802 136.701 110.771 138.35C109.887 145.729 107.902 152.936 104.881 159.732ZM145.087 178.879C144.11 179.382 143.182 179.704 142.759 179.473C142.461 179.308 143.182 178.648 143.182 178.648C143.182 178.648 148.227 173.247 150.216 170.806C151.359 169.371 152.701 167.689 154.159 165.784V166.329C154.159 172.777 147.888 177.123 145.096 178.896L145.087 178.879ZM176.106 171.837C175.385 171.334 175.509 169.644 177.929 164.374C179.611 160.99 181.961 157.978 184.838 155.518C185.279 156.766 185.509 158.079 185.517 159.402C185.55 162.218 184.645 164.966 182.944 167.217C181.243 169.468 178.842 171.095 176.114 171.845L176.106 171.837Z" fill="#CD6799"/>
</svg>
