<svg viewBox="0 0 256 256" fill="none" xmlns="http://www.w3.org/2000/svg">
<path fill-rule="evenodd" clip-rule="evenodd" d="M127.989 8C89.3865 8 62.3145 9.20533 45.2532 10.3573C27.1465 11.5733 12.2292 24.9067 10.5492 43.344C9.24252 57.7387 7.97852 79.3973 7.97852 109.349C7.97852 139.301 9.24252 160.965 10.5492 175.355C12.2292 193.797 27.1465 207.125 45.2532 208.347C57.4612 209.173 74.7892 210.021 97.7972 210.437C100.626 210.489 103.36 209.415 105.397 207.451C107.434 205.487 108.607 202.794 108.659 199.965C108.71 197.136 107.636 194.403 105.672 192.366C103.708 190.329 101.015 189.156 98.1865 189.104C75.5092 188.699 58.5278 187.861 46.6878 187.061C38.2398 186.491 32.4478 180.64 31.7972 173.424C30.5545 159.717 29.3118 138.704 29.3118 109.349C29.3118 79.9947 30.5545 58.9867 31.7972 45.2747C32.4532 38.064 38.2398 32.208 46.6878 31.6373C63.2372 30.5227 89.8345 29.3333 127.989 29.3333C166.149 29.3333 192.747 30.5227 209.296 31.6373C217.739 32.208 223.531 38.064 224.187 45.2747C225.429 58.9813 226.672 80 226.672 109.349C226.672 112.178 227.796 114.891 229.796 116.892C231.796 118.892 234.51 120.016 237.339 120.016C240.167 120.016 242.881 118.892 244.881 116.892C246.881 114.891 248.005 112.178 248.005 109.349C248.005 79.4027 246.736 57.7387 245.429 43.344C243.755 24.9067 228.832 11.5787 210.731 10.3573C193.664 9.20533 166.592 8 127.989 8ZM146.475 107.413C148.951 104.937 151.891 102.973 155.127 101.634C158.363 100.294 161.831 99.6047 165.333 99.6053C172.699 99.6053 179.371 102.592 184.192 107.413C191.008 107.413 197.835 110.016 203.045 115.227C208.046 120.226 210.857 127.008 210.859 134.08C213.335 136.557 215.299 139.497 216.638 142.733C217.978 145.969 218.667 149.437 218.667 152.939C218.667 160.299 215.68 166.971 210.859 171.792C210.858 175.295 210.168 178.763 208.828 181.999C207.487 185.234 205.522 188.174 203.045 190.651C199.845 193.851 196.032 196.064 191.984 197.301C192.059 208.768 191.845 222.88 190.917 238.085C190.368 247.211 179.467 251.216 173.024 245.035L165.333 237.659L157.643 245.035C151.2 251.216 140.299 247.211 139.744 238.085C138.936 224.506 138.58 210.904 138.677 197.301C134.503 196.023 130.707 193.739 127.621 190.651C125.145 188.174 123.181 185.234 121.841 181.998C120.502 178.762 119.813 175.294 119.813 171.792C114.812 166.792 112.001 160.011 112 152.939C112 145.573 114.987 138.901 119.813 134.08C119.813 127.264 122.411 120.432 127.621 115.227C130.097 112.75 133.037 110.785 136.273 109.444C139.509 108.103 142.972 107.413 146.475 107.413ZM165.333 134.523C160.382 134.523 155.635 136.489 152.134 139.99C148.633 143.491 146.667 148.239 146.667 153.189C146.667 158.14 148.633 162.888 152.134 166.389C155.635 169.889 160.382 171.856 165.333 171.856C170.284 171.856 175.032 169.889 178.532 166.389C182.033 162.888 184 158.14 184 153.189C184 148.239 182.033 143.491 178.532 139.99C175.032 136.489 170.284 134.523 165.333 134.523ZM54.8425 64C54.8425 61.171 55.9663 58.4579 57.9667 56.4575C59.9671 54.4571 62.6802 53.3333 65.5092 53.3333H174.859C177.687 53.3333 180.401 54.4571 182.401 56.4575C184.401 58.4579 185.525 61.171 185.525 64C185.525 66.829 184.401 69.5421 182.401 71.5425C180.401 73.5429 177.687 74.6667 174.859 74.6667H65.5038C62.6749 74.6667 59.9618 73.5429 57.9614 71.5425C55.961 69.5421 54.8372 66.829 54.8372 64M65.5038 88.624C62.6749 88.624 59.9618 89.7478 57.9614 91.7482C55.961 93.7486 54.8372 96.4617 54.8372 99.2907C54.8372 102.12 55.961 104.833 57.9614 106.833C59.9618 108.834 62.6749 109.957 65.5038 109.957H96.7465C99.5755 109.957 102.289 108.834 104.289 106.833C106.289 104.833 107.413 102.12 107.413 99.2907C107.413 96.4617 106.289 93.7486 104.289 91.7482C102.289 89.7478 99.5755 88.624 96.7465 88.624H65.5038Z" fill="currentColor"/>
</svg>
