<svg viewBox="0 0 256 256" fill="none" xmlns="http://www.w3.org/2000/svg">
<path d="M184.564 97.4118H165.143V36.2353C165.143 29.5059 159.646 24 152.929 24H104.071C97.3536 24 91.8571 29.5059 91.8571 36.2353V97.4118H72.4364C61.5657 97.4118 56.0693 110.626 63.7643 118.334L119.828 174.494C124.591 179.266 132.286 179.266 137.05 174.494L193.114 118.334C200.809 110.626 195.434 97.4118 184.564 97.4118ZM43 219.765C43 226.494 48.4964 232 55.2143 232H201.786C208.504 232 214 226.494 214 219.765C214 213.035 208.504 207.529 201.786 207.529H55.2143C48.4964 207.529 43 213.035 43 219.765Z" fill="currentColor"/>
</svg>
